<?xml version="1.0" standalone="no"?>
<!DOCTYPE svg PUBLIC "-//W3C//DTD SVG 20010904//EN"
 "http://www.w3.org/TR/2001/REC-SVG-20010904/DTD/svg10.dtd">
<svg version="1.0" xmlns="http://www.w3.org/2000/svg"
 width="481.000000pt" height="378.000000pt" viewBox="0 0 481.000000 378.000000"
 preserveAspectRatio="xMidYMid meet">
<metadata>
Created by potrace 1.16, written by Peter Selinger 2001-2019
</metadata>
<g transform="translate(0.000000,378.000000) scale(0.100000,-0.100000)"
fill="#000000" stroke="none">
<path d="M4570 3761 c-211 -68 -415 -269 -611 -601 l-64 -109 -1672 -1 -1672
0 -6 48 c-26 186 -80 366 -135 452 -65 102 -159 160 -257 160 -46 0 -83 -37
-83 -83 0 -49 26 -75 85 -86 98 -18 162 -126 204 -346 28 -142 28 -145 -9
-145 -42 0 -80 -39 -80 -83 0 -44 32 -74 88 -83 32 -5 43 -12 47 -28 4 -22 35
-473 35 -519 0 -25 -3 -27 -38 -27 -66 0 -104 -70 -72 -130 11 -21 60 -40 102
-40 32 0 31 4 51 -109 63 -338 382 -610 952 -811 254 -90 500 -152 1060 -266
231 -47 489 -103 574 -125 148 -37 266 -83 266 -104 0 -16 -92 -42 -190 -54
-61 -7 -501 -11 -1362 -11 l-1272 0 -20 -26 c-28 -36 -27 -79 4 -109 l24 -25
221 0 220 0 0 -43 c0 -40 -4 -46 -43 -74 -63 -44 -90 -105 -85 -188 7 -118 90
-195 210 -195 75 0 114 17 160 68 89 98 71 247 -39 322 -29 20 -33 28 -33 66
l0 44 860 0 860 0 0 -41 c0 -36 -5 -46 -50 -86 -152 -137 -65 -373 138 -373
117 0 202 77 210 189 7 94 -30 171 -99 207 -25 13 -29 20 -29 59 l0 45 78 0
c102 0 248 31 313 66 137 75 140 240 5 319 -116 68 -282 112 -846 225 -223 44
-497 103 -610 131 -235 58 -537 156 -690 224 -107 48 -281 146 -335 191 l-30
24 70 -21 c220 -64 616 -143 971 -193 397 -56 902 -94 1013 -76 191 32 370
223 595 636 l64 119 77 5 c87 6 105 19 105 80 0 44 -33 80 -74 80 -27 0 -26 2
121 290 l148 290 77 0 c67 0 80 3 98 22 45 48 14 132 -52 140 -27 3 -27 3 56
128 184 275 359 420 524 437 84 8 112 30 112 87 0 63 -19 76 -111 75 -42 0
-98 -8 -129 -18z m-829 -880 l56 -6 -145 -282 -144 -283 -1448 0 -1448 0 -6
38 c-3 20 -13 143 -21 272 -9 129 -18 240 -20 247 -3 9 23 13 98 16 197 6
3023 5 3078 -2z m-347 -798 c-123 -222 -251 -397 -338 -463 -87 -66 -118 -73
-296 -66 -705 28 -1709 211 -2004 364 -61 32 -71 42 -91 87 -13 27 -26 71 -30
98 l-6 47 1401 0 1401 0 -37 -67z"/>
<path d="M840 2085 c0 -3 7 -21 15 -41 10 -25 26 -40 57 -54 245 -108 1317
-279 1864 -297 272 -9 302 1 408 140 55 72 156 233 156 249 0 4 -562 8 -1250
8 -687 0 -1250 -2 -1250 -5z"/>
<path d="M730 3397 c0 -24 3 -78 6 -120 l7 -77 1524 0 1524 0 54 116 c30 64
55 118 55 120 0 2 -713 4 -1585 4 l-1585 0 0 -43z"/>
</g>
</svg>
