<svg xmlns="http://www.w3.org/2000/svg" id="OBJECTS" viewBox="0 0 169.17 50"><defs fill="#ffffff"><style>.cls-1,.cls-5{fill:none;}.cls-2{fill:#f2f2f2;}.cls-3{fill:#bb2d3b;}.cls-4{fill:#2b57bc;}.cls-5{stroke:#ffffff;stroke-linecap:round;stroke-linejoin:round;stroke-width:0.77px;}</style></defs><path class="cls-1" d="M161.7,16.8c-.87,1.63-1.71,3.33-2.55,5l-1.35,2.69h-1.23c1.25-2.43,2.54-5.17,3.73-7.71Z" transform="translate(-5.71 -5)" fill="#ffffff"/><path class="cls-1" d="M119.73,27.59a2,2,0,0,1,0-.26c-.05-.23-.09-.48-.13-.74h3a3.67,3.67,0,0,0,.28.83c1,1.6,24.79,5.16,28.56,4.2,1.12-.29,2.57-2.3,4.1-5h1.27c-2.35,4.41-4.74,8-7.11,8-9.05,0-26.85-3-29.26-5.45A3.49,3.49,0,0,1,119.73,27.59Z" transform="translate(-5.71 -5)" fill="#ffffff"/><path class="cls-1" d="M122.15,24.51H119.3c-.12-1.24-.21-2.57-.28-3.79s-.17-2.62-.28-3.92h2.6C121.56,19.44,121.84,22.38,122.15,24.51Z" transform="translate(-5.71 -5)" fill="#ffffff"/><path class="cls-2" d="M160.3,16.8c-1.19,2.54-2.48,5.28-3.73,7.71H122.15c-.31-2.13-.59-5.07-.81-7.71Z" transform="translate(-5.71 -5)" fill="#ffffff"/><path class="cls-3" d="M121,9.54h41.83c-.47.92-1,2-1.51,3.1h-40.1C121.08,11.4,121,10.31,121,9.54Z" transform="translate(-5.71 -5)" fill="#ffffff"/><path class="cls-4" d="M151.35,32.43c-3.77,1-27.6-2.6-28.56-4.2a3.67,3.67,0,0,1-.28-.83h32.94C153.92,30.14,152.47,32.15,151.35,32.43Z" transform="translate(-5.71 -5)" fill="#ffffff"/><path d="M113.25,6c3.43,0,4.68,3.94,5.27,8.69h44.32c3.08-5.43,6.52-9.72,11-9.72a1,1,0,0,1,0,2.08c-3.2,0-6,3.33-8.6,7.64h.38a1,1,0,0,1,0,2.08h-1.57c-1.05,1.93-2.07,4-3.05,5.94l-.88,1.77h.37a1,1,0,0,1,0,2.08h-1.43c-2.95,5.7-5.78,10.07-9.46,10.07-6.4,0-19.75-1.74-26.73-4.07C128,37,138.07,39,146,40.54c7.63,1.49,11.31,2.31,11.69,4.49a2.1,2.1,0,0,1-.51,1.79c-1.19,1.34-4.22,1.56-6,1.56v1.26a2.78,2.78,0,1,1-2.08,0V48.35H126.14v1.29a2.78,2.78,0,1,1-2.08,0V48.35h-5.43a1,1,0,1,1,0-2.07h31.51c2.76.13,5.25-.37,5.47-.87-.47-.95-6-2-10.05-2.84-11-2.16-26.1-5.13-27.9-14.74l0-.17a.29.29,0,0,1,0-.09v0c-.06-.3-.12-.62-.17-1h-.9a1,1,0,0,1,0-2.08h.67c-.1-1.08-.18-2.3-.27-3.66s-.17-2.67-.29-4.05h-.73a1,1,0,0,1,0-2.08h.5c-.47-3.59-1.32-6.62-3.17-6.62a1,1,0,1,1,0-2.07Zm43.47,20.56H119.55c0,.26.08.51.13.74a2,2,0,0,0,0,.26,3.49,3.49,0,0,0,.62,1.54c2.41,2.41,20.21,5.45,29.26,5.45C152,34.58,154.37,31,156.72,26.59ZM119,20.72c.07,1.22.16,2.55.28,3.79h38.5l1.35-2.69c.84-1.69,1.68-3.39,2.55-5h-43C118.85,18.1,118.93,19.43,119,20.72Z" transform="translate(-5.71 -5)" fill="#ffffff"/><line class="cls-5" x1="101.4" y1="10" x2="101.4" y2="40" fill="#ffffff"/><path d="M13.84,22.07v3.6H5.71v-3.6c0-2.88,1.37-3.9,4.07-3.9S13.84,19.19,13.84,22.07Zm-4.54-5h-2V15h2Zm-1.58,5v1.8h4.11v-1.8c0-1.75-.36-2.1-2.05-2.1S7.72,20.32,7.72,22.07Zm4.53-5h-2V15h2Z" transform="translate(-5.71 -5)" fill="#ffffff"/><path d="M14,29.32l.23-1.79.61,0c.44,0,.74-.39.74-1.28V18.17h2V26.3a2.78,2.78,0,0,1-2.75,3.08A8.3,8.3,0,0,1,14,29.32Z" transform="translate(-5.71 -5)" fill="#ffffff"/><path d="M24.37,24.77c0,.56-.06.9-.3.9H19.83V15.17h2v8.7h2.23C24.31,23.87,24.37,24.22,24.37,24.77Z" transform="translate(-5.71 -5)" fill="#ffffff"/><path d="M33.82,24.77c0,.56-.06.9-.3.9H24.07c-.24,0-.3-.34-.3-.9s.06-.9.3-.9h5.66V21.58c0-1.07-.63-1.61-2-1.61-.54,0-1.2.09-2.4.23l-.21-1.64a11.08,11.08,0,0,1,2.61-.39c2.34,0,4,1.28,4,3.41v2.29h1.78C33.76,23.87,33.82,24.22,33.82,24.77ZM26.76,26.6h2v2h-2Z" transform="translate(-5.71 -5)" fill="#ffffff"/><path d="M39.4,24.77c0,.56-.06.9-.3.9H33.52c-.24,0-.3-.34-.3-.9s.06-.9.3-.9h1.79v-5.7h2v5.7H39.1C39.34,23.87,39.4,24.22,39.4,24.77Zm-3.57-7.69h-2V15h2Zm3,0h-2V15h2Z" transform="translate(-5.71 -5)" fill="#ffffff"/><path d="M45.43,24.77c0,.56-.06.9-.3.9h-6c-.24,0-.3-.34-.3-.9s.06-.9.3-.9h2.24v-8.7h2v8.7h1.78C45.37,23.87,45.43,24.22,45.43,24.77Z" transform="translate(-5.71 -5)" fill="#ffffff"/><path d="M49.38,15.17v10.5H45.13c-.24,0-.3-.34-.3-.9s.06-.9.3-.9h2.24v-8.7Z" transform="translate(-5.71 -5)" fill="#ffffff"/><path d="M67.18,24.77c0,.56-.06.9-.3.9h-8.1c-3,0-4.45-1-4.45-3.19a15.16,15.16,0,0,1,.39-2.69l2,.38a13,13,0,0,0-.34,2.32c0,1,.42,1.38,2.44,1.38h4.31v-8.7h2v8.7h1.78C67.12,23.87,67.18,24.22,67.18,24.77Zm-5.5-3.45H57.75v-1.2h.3a1.79,1.79,0,0,1,0-.34,2.1,2.1,0,0,1,2.17-2.06,2.66,2.66,0,0,1,1.22.32l-.71,1a1,1,0,0,0-.51-.14.81.81,0,0,0-.82.86.76.76,0,0,0,.06.34h2.25Z" transform="translate(-5.71 -5)" fill="#ffffff"/><path d="M72.76,24.77c0,.56-.06.9-.3.9H66.88c-.24,0-.3-.34-.3-.9s.06-.9.3-.9h1.79v-5.7h2v5.7h1.78C72.7,23.87,72.76,24.22,72.76,24.77Zm-3.57-7.69h-2V15h2Zm3,0h-2V15h2Z" transform="translate(-5.71 -5)" fill="#ffffff"/><path d="M86.2,24.77c0,.56-.06.9-.3.9H72.46c-.24,0-.3-.34-.3-.9s.06-.9.3-.9h2v-5.7h2v2.28a5.22,5.22,0,0,1,4.17-2.28c2.85,0,3.5,2.21,3.5,3.89v1.81H85.9C86.14,23.87,86.2,24.22,86.2,24.77Zm-4.09-.9V22.06c0-1.52-.47-2.09-1.49-2.09-1.81,0-3.37,1.86-4.17,2.91v1Z" transform="translate(-5.71 -5)" fill="#ffffff"/><path d="M91.78,24.77c0,.56-.06.9-.3.9H85.9c-.24,0-.3-.34-.3-.9s.06-.9.3-.9h1.79v-5.7h2v5.7h1.78C91.72,23.87,91.78,24.22,91.78,24.77ZM89.7,17.08h-2V15h2Z" transform="translate(-5.71 -5)" fill="#ffffff"/><path d="M100.59,22v3.67H91.48c-.24,0-.3-.34-.3-.9s.06-.9.3-.9h1.85a15.4,15.4,0,0,1-.11-1.77,15,15,0,0,1,.44-3.52,9.27,9.27,0,0,1,2.86-.41C99.22,18.17,100.59,19.19,100.59,22Zm-2,1.87V22c0-1.68-.36-2-2.06-2a7.87,7.87,0,0,0-1.12.08,13.49,13.49,0,0,0-.17,2.05,14.61,14.61,0,0,0,.12,1.77Z" transform="translate(-5.71 -5)" fill="#ffffff"/><path d="M41.4,39.17c0,.56-.06.9-.3.9H35.7c-2.63,0-3.35-1.17-3.35-3.75s.72-3.75,3.35-3.75h3.63v5.7H41.1C41.34,38.27,41.4,38.62,41.4,39.17Zm-5.82-7.69h-2v-2h2Zm1.74,6.79v-3.9H35.7c-1.19,0-1.34.08-1.34,2s.15,2,1.34,2Zm1.21-6.79h-2v-2h2Z" transform="translate(-5.71 -5)" fill="#ffffff"/><path d="M47,39.17c0,.56-.06.9-.3.9H41.1c-.24,0-.3-.34-.3-.9s.06-.9.3-.9h1.78v-5.7h2v5.7h1.79C46.92,38.27,47,38.62,47,39.17ZM41.4,41h2v2h-2Zm3,0h2v2h-2Z" transform="translate(-5.71 -5)" fill="#ffffff"/><path d="M48.46,32.57h2v7.5H46.68c-.24,0-.3-.34-.3-.9s.06-.9.3-.9h1.78Zm2-3.13v2h-2v-2Z" transform="translate(-5.71 -5)" fill="#ffffff"/><path d="M59.1,32.57v7.59c0,2.18-1.14,3.6-3.42,3.6a12.26,12.26,0,0,1-2.46-.31l.43-1.76a9.79,9.79,0,0,0,2,.27c1,0,1.41-.45,1.41-1.8v-.09H55.47c-2.63,0-3.35-1.17-3.35-3.75s.72-3.75,3.35-3.75Zm-2,5.7v-3.9H55.47c-1.19,0-1.34.08-1.34,2s.15,2,1.34,2Z" transform="translate(-5.71 -5)" fill="#ffffff"/><path d="M71,39.17c0,.56-.06.9-.3.9h-3.8V36H63.28V40.7a2.77,2.77,0,0,1-2.74,3.08,8.1,8.1,0,0,1-.84-.06l.22-1.79.62,0c.43,0,.73-.39.73-1.28V32.57h2v1.67h3.57V32.57h2v5.7h1.79C70.89,38.27,71,38.62,71,39.17Zm-3.57-7.69h-2v-2h2Zm3,0h-2v-2h2Z" transform="translate(-5.71 -5)" fill="#ffffff"/><path d="M81.45,39.17c0,.56-.06.9-.3.9H70.65c-.24,0-.3-.34-.3-.9s.06-.9.3-.9h6.7V36.49c0-1.38-.4-1.89-1.29-1.89H72.75l-1.38-2.06.7-1.39c.33-.6.69-1.2,1.41-2.3l1.68,1A21.78,21.78,0,0,0,73.86,32l-.42.81h2.62c2.69,0,3.3,2.11,3.3,3.69v1.78h1.79C81.39,38.27,81.45,38.62,81.45,39.17Z" transform="translate(-5.71 -5)" fill="#ffffff"/><path d="M85.39,29.57v10.5H81.15c-.24,0-.3-.34-.3-.9s.06-.9.3-.9h2.23v-8.7Z" transform="translate(-5.71 -5)" fill="#ffffff"/><path d="M95.88,29.57v10.5H87v-1.8h2.19V31.6h2v6.67h2.63v-8.7ZM90,43.37H92.2v1.2H88.27v-1.2h.3a3.31,3.31,0,0,1,0-.34A2.1,2.1,0,0,1,90.72,41a2.65,2.65,0,0,1,1.21.32l-.7,1a1,1,0,0,0-.51-.14.82.82,0,0,0-.83.86A.93.93,0,0,0,90,43.37Z" transform="translate(-5.71 -5)" fill="#ffffff"/><path d="M98.28,29.57h2v10.5h-2Z" transform="translate(-5.71 -5)" fill="#ffffff"/></svg>